<svg id="Layer_1" data-name="Layer 1" xmlns="http://www.w3.org/2000/svg" viewBox="0 0 1397 1397"><defs><style>.cls-1{fill:#727272;}</style></defs><path class="cls-1" d="M1739,226H366a12,12,0,0,0-12,12V1611a12,12,0,0,0,12,12H1739a12,12,0,0,0,12-12V238A12,12,0,0,0,1739,226ZM501.5,1539a60.5,60.5,0,1,1,60.5-60.5A60.5,60.5,0,0,1,501.5,1539Zm0-186a60.5,60.5,0,1,1,60.5-60.5A60.5,60.5,0,0,1,501.5,1353Zm0-186a60.5,60.5,0,1,1,60.5-60.5A60.5,60.5,0,0,1,501.5,1167Zm0-186A60.5,60.5,0,1,1,562,920.5,60.5,60.5,0,0,1,501.5,981Zm0-186A60.5,60.5,0,1,1,562,734.5,60.5,60.5,0,0,1,501.5,795Zm0-186A60.5,60.5,0,1,1,562,548.5,60.5,60.5,0,0,1,501.5,609Zm0-186A60.5,60.5,0,1,1,562,362.5,60.5,60.5,0,0,1,501.5,423Zm184,1116a60.5,60.5,0,1,1,60.5-60.5A60.5,60.5,0,0,1,685.5,1539Zm0-186a60.5,60.5,0,1,1,60.5-60.5A60.5,60.5,0,0,1,685.5,1353Zm0-186a60.5,60.5,0,1,1,60.5-60.5A60.5,60.5,0,0,1,685.5,1167Zm0-186A60.5,60.5,0,1,1,746,920.5,60.5,60.5,0,0,1,685.5,981Zm0-186A60.5,60.5,0,1,1,746,734.5,60.5,60.5,0,0,1,685.5,795Zm0-186A60.5,60.5,0,1,1,746,548.5,60.5,60.5,0,0,1,685.5,609Zm0-186A60.5,60.5,0,1,1,746,362.5,60.5,60.5,0,0,1,685.5,423Zm184,1116a60.5,60.5,0,1,1,60.5-60.5A60.5,60.5,0,0,1,869.5,1539Zm0-186a60.5,60.5,0,1,1,60.5-60.5A60.5,60.5,0,0,1,869.5,1353Zm0-186a60.5,60.5,0,1,1,60.5-60.5A60.5,60.5,0,0,1,869.5,1167Zm0-186A60.5,60.5,0,1,1,930,920.5,60.5,60.5,0,0,1,869.5,981Zm0-186A60.5,60.5,0,1,1,930,734.5,60.5,60.5,0,0,1,869.5,795Zm0-186A60.5,60.5,0,1,1,930,548.5,60.5,60.5,0,0,1,869.5,609Zm0-186A60.5,60.5,0,1,1,930,362.5,60.5,60.5,0,0,1,869.5,423Zm184,1116a60.5,60.5,0,1,1,60.5-60.5A60.5,60.5,0,0,1,1053.5,1539Zm0-186a60.5,60.5,0,1,1,60.5-60.5A60.5,60.5,0,0,1,1053.5,1353Zm0-186a60.5,60.5,0,1,1,60.5-60.5A60.5,60.5,0,0,1,1053.5,1167Zm0-186a60.5,60.5,0,1,1,60.5-60.5A60.5,60.5,0,0,1,1053.5,981Zm0-186a60.5,60.5,0,1,1,60.5-60.5A60.5,60.5,0,0,1,1053.5,795Zm0-186a60.5,60.5,0,1,1,60.5-60.5A60.5,60.5,0,0,1,1053.5,609Zm0-186a60.5,60.5,0,1,1,60.5-60.5A60.5,60.5,0,0,1,1053.5,423Zm184,1116a60.5,60.5,0,1,1,60.5-60.5A60.5,60.5,0,0,1,1237.5,1539Zm0-186a60.5,60.5,0,1,1,60.5-60.5A60.5,60.5,0,0,1,1237.5,1353Zm0-186a60.5,60.5,0,1,1,60.5-60.5A60.5,60.5,0,0,1,1237.5,1167Zm0-186a60.5,60.5,0,1,1,60.5-60.5A60.5,60.5,0,0,1,1237.5,981Zm0-186a60.5,60.5,0,1,1,60.5-60.5A60.5,60.5,0,0,1,1237.5,795Zm0-186a60.5,60.5,0,1,1,60.5-60.5A60.5,60.5,0,0,1,1237.5,609Zm0-186a60.5,60.5,0,1,1,60.5-60.5A60.5,60.5,0,0,1,1237.5,423Zm184,1116a60.5,60.5,0,1,1,60.5-60.5A60.5,60.5,0,0,1,1421.5,1539Zm0-186a60.5,60.5,0,1,1,60.5-60.5A60.5,60.5,0,0,1,1421.5,1353Zm0-186a60.5,60.5,0,1,1,60.5-60.5A60.5,60.5,0,0,1,1421.5,1167Zm0-186a60.5,60.5,0,1,1,60.5-60.5A60.5,60.5,0,0,1,1421.5,981Zm0-186a60.5,60.5,0,1,1,60.5-60.5A60.5,60.5,0,0,1,1421.5,795Zm0-186a60.5,60.5,0,1,1,60.5-60.5A60.5,60.5,0,0,1,1421.5,609Zm0-186a60.5,60.5,0,1,1,60.5-60.5A60.5,60.5,0,0,1,1421.5,423Zm184,1116a60.5,60.5,0,1,1,60.5-60.5A60.5,60.5,0,0,1,1605.5,1539Zm0-186a60.5,60.5,0,1,1,60.5-60.5A60.5,60.5,0,0,1,1605.5,1353Zm0-186a60.5,60.5,0,1,1,60.5-60.5A60.5,60.5,0,0,1,1605.5,1167Zm0-186a60.5,60.5,0,1,1,60.5-60.5A60.5,60.5,0,0,1,1605.5,981Zm0-186a60.5,60.5,0,1,1,60.5-60.5A60.5,60.5,0,0,1,1605.5,795Zm0-186a60.5,60.5,0,1,1,60.5-60.5A60.5,60.5,0,0,1,1605.5,609Zm0-186a60.5,60.5,0,1,1,60.5-60.5A60.5,60.5,0,0,1,1605.5,423Z" transform="translate(-354 -226)"/></svg>