<svg xmlns="http://www.w3.org/2000/svg" viewBox="0 0 1397 1574.24"><defs><style>.cls-1{fill:none;}.cls-2{fill:#727272;}.cls-3{fill:#9b00ff;stroke:#000;stroke-miterlimit:10;stroke-width:40px;}</style></defs><g id="Layer_3" data-name="Layer 3"><circle class="cls-1" cx="148" cy="313.24" r="89"/><circle class="cls-1" cx="332" cy="313.24" r="89"/><circle class="cls-1" cx="516" cy="313.24" r="89"/><circle class="cls-1" cx="694" cy="313.24" r="89"/><circle class="cls-1" cx="884" cy="313.24" r="89"/><circle class="cls-1" cx="1068" cy="313.24" r="89"/><circle class="cls-1" cx="1246" cy="313.24" r="89"/><circle class="cls-1" cx="148" cy="500.24" r="89"/><circle class="cls-1" cx="332" cy="500.24" r="89"/><circle class="cls-1" cx="516" cy="500.24" r="89"/><circle class="cls-1" cx="694" cy="500.24" r="89"/><circle class="cls-1" cx="884" cy="500.24" r="89"/><circle class="cls-1" cx="1068" cy="500.24" r="89"/><circle class="cls-1" cx="1246" cy="500.24" r="89"/><circle class="cls-1" cx="148" cy="686.24" r="89"/><circle class="cls-1" cx="332" cy="686.24" r="89"/><circle class="cls-1" cx="516" cy="686.24" r="89"/><circle class="cls-1" cx="694" cy="686.24" r="89"/><circle class="cls-1" cx="884" cy="686.24" r="89"/><circle class="cls-1" cx="1068" cy="686.24" r="89"/><circle class="cls-1" cx="1246" cy="686.24" r="89"/><circle class="cls-1" cx="148" cy="872.24" r="89"/><circle class="cls-1" cx="332" cy="872.24" r="89"/><circle class="cls-1" cx="516" cy="872.24" r="89"/><circle class="cls-1" cx="694" cy="872.24" r="89"/><circle class="cls-1" cx="884" cy="872.24" r="89"/><circle class="cls-1" cx="1068" cy="872.24" r="89"/><circle class="cls-1" cx="1246" cy="872.24" r="89"/><circle class="cls-1" cx="148" cy="1058.24" r="89"/><circle class="cls-1" cx="332" cy="1058.24" r="89"/><circle class="cls-1" cx="516" cy="1058.24" r="89"/><circle class="cls-1" cx="694" cy="1058.24" r="89"/><circle class="cls-1" cx="884" cy="1058.24" r="89"/><circle class="cls-1" cx="1068" cy="1058.24" r="89"/><circle class="cls-1" cx="1246" cy="1058.24" r="89"/><circle class="cls-1" cx="148" cy="1244.24" r="89"/><circle class="cls-1" cx="332" cy="1244.24" r="89"/><circle class="cls-1" cx="516" cy="1244.24" r="89"/><circle class="cls-1" cx="694" cy="1244.24" r="89"/><circle class="cls-1" cx="884" cy="1244.24" r="89"/><circle class="cls-1" cx="1068" cy="1244.24" r="89"/><circle class="cls-1" cx="1246" cy="1244.24" r="89"/><circle class="cls-1" cx="148" cy="1430.24" r="89"/><circle class="cls-1" cx="332" cy="1430.24" r="89"/><circle class="cls-1" cx="516" cy="1430.24" r="89"/><circle class="cls-1" cx="694" cy="1430.24" r="89"/><circle class="cls-1" cx="884" cy="1430.24" r="89"/><circle class="cls-1" cx="1068" cy="1430.24" r="89"/><circle class="cls-1" cx="1246" cy="1430.24" r="89"/></g><g id="Layer_1" data-name="Layer 1"><path class="cls-2" d="M1739,226H366a12,12,0,0,0-12,12V1611a12,12,0,0,0,12,12H1739a12,12,0,0,0,12-12V238A12,12,0,0,0,1739,226ZM501.5,1539a60.5,60.5,0,1,1,60.5-60.5A60.5,60.5,0,0,1,501.5,1539Zm0-186a60.5,60.5,0,1,1,60.5-60.5A60.5,60.5,0,0,1,501.5,1353Zm0-186a60.5,60.5,0,1,1,60.5-60.5A60.5,60.5,0,0,1,501.5,1167Zm0-186A60.5,60.5,0,1,1,562,920.5,60.5,60.5,0,0,1,501.5,981Zm0-186A60.5,60.5,0,1,1,562,734.5,60.5,60.5,0,0,1,501.5,795Zm0-186A60.5,60.5,0,1,1,562,548.5,60.5,60.5,0,0,1,501.5,609Zm0-186A60.5,60.5,0,1,1,562,362.5,60.5,60.5,0,0,1,501.5,423Zm184,1116a60.5,60.5,0,1,1,60.5-60.5A60.5,60.5,0,0,1,685.5,1539Zm0-186a60.5,60.5,0,1,1,60.5-60.5A60.5,60.5,0,0,1,685.5,1353Zm0-186a60.5,60.5,0,1,1,60.5-60.5A60.5,60.5,0,0,1,685.5,1167Zm0-186A60.5,60.5,0,1,1,746,920.5,60.5,60.5,0,0,1,685.5,981Zm0-186A60.5,60.5,0,1,1,746,734.5,60.5,60.5,0,0,1,685.5,795Zm0-186A60.5,60.5,0,1,1,746,548.5,60.5,60.5,0,0,1,685.5,609Zm0-186A60.5,60.5,0,1,1,746,362.5,60.5,60.5,0,0,1,685.5,423Zm184,1116a60.5,60.5,0,1,1,60.5-60.5A60.5,60.5,0,0,1,869.5,1539Zm0-186a60.5,60.5,0,1,1,60.5-60.5A60.5,60.5,0,0,1,869.5,1353Zm0-186a60.5,60.5,0,1,1,60.5-60.5A60.5,60.5,0,0,1,869.5,1167Zm0-186A60.5,60.5,0,1,1,930,920.5,60.5,60.5,0,0,1,869.5,981Zm0-186A60.5,60.5,0,1,1,930,734.5,60.5,60.5,0,0,1,869.5,795Zm0-186A60.5,60.5,0,1,1,930,548.5,60.5,60.5,0,0,1,869.5,609Zm0-186A60.5,60.5,0,1,1,930,362.5,60.5,60.5,0,0,1,869.5,423Zm184,1116a60.5,60.5,0,1,1,60.5-60.5A60.5,60.5,0,0,1,1053.5,1539Zm0-186a60.5,60.5,0,1,1,60.5-60.5A60.5,60.5,0,0,1,1053.5,1353Zm0-186a60.5,60.5,0,1,1,60.5-60.5A60.5,60.5,0,0,1,1053.5,1167Zm0-186a60.5,60.5,0,1,1,60.5-60.5A60.5,60.5,0,0,1,1053.5,981Zm0-186a60.5,60.5,0,1,1,60.5-60.5A60.5,60.5,0,0,1,1053.5,795Zm0-186a60.5,60.5,0,1,1,60.5-60.5A60.5,60.5,0,0,1,1053.5,609Zm0-186a60.5,60.5,0,1,1,60.5-60.5A60.5,60.5,0,0,1,1053.5,423Zm184,1116a60.5,60.5,0,1,1,60.5-60.5A60.5,60.5,0,0,1,1237.5,1539Zm0-186a60.5,60.5,0,1,1,60.5-60.5A60.5,60.5,0,0,1,1237.5,1353Zm0-186a60.5,60.5,0,1,1,60.5-60.5A60.5,60.5,0,0,1,1237.5,1167Zm0-186a60.5,60.5,0,1,1,60.5-60.5A60.5,60.5,0,0,1,1237.5,981Zm0-186a60.5,60.5,0,1,1,60.5-60.5A60.5,60.5,0,0,1,1237.5,795Zm0-186a60.5,60.5,0,1,1,60.5-60.5A60.5,60.5,0,0,1,1237.5,609Zm0-186a60.5,60.5,0,1,1,60.5-60.5A60.5,60.5,0,0,1,1237.5,423Zm184,1116a60.5,60.5,0,1,1,60.5-60.5A60.5,60.5,0,0,1,1421.5,1539Zm0-186a60.5,60.5,0,1,1,60.5-60.5A60.5,60.5,0,0,1,1421.5,1353Zm0-186a60.5,60.5,0,1,1,60.5-60.5A60.5,60.5,0,0,1,1421.5,1167Zm0-186a60.5,60.5,0,1,1,60.5-60.5A60.5,60.5,0,0,1,1421.5,981Zm0-186a60.5,60.5,0,1,1,60.5-60.5A60.5,60.5,0,0,1,1421.5,795Zm0-186a60.5,60.5,0,1,1,60.5-60.5A60.5,60.5,0,0,1,1421.5,609Zm0-186a60.5,60.5,0,1,1,60.5-60.5A60.5,60.5,0,0,1,1421.5,423Zm184,1116a60.5,60.5,0,1,1,60.5-60.5A60.5,60.5,0,0,1,1605.5,1539Zm0-186a60.5,60.5,0,1,1,60.5-60.5A60.5,60.5,0,0,1,1605.5,1353Zm0-186a60.5,60.5,0,1,1,60.5-60.5A60.5,60.5,0,0,1,1605.5,1167Zm0-186a60.5,60.5,0,1,1,60.5-60.5A60.5,60.5,0,0,1,1605.5,981Zm0-186a60.5,60.5,0,1,1,60.5-60.5A60.5,60.5,0,0,1,1605.5,795Zm0-186a60.5,60.5,0,1,1,60.5-60.5A60.5,60.5,0,0,1,1605.5,609Zm0-186a60.5,60.5,0,1,1,60.5-60.5A60.5,60.5,0,0,1,1605.5,423Z" transform="translate(-354 -48.76)"/></g><g id="Layer_2" data-name="Layer 2"><ellipse class="cls-3" cx="141.4" cy="76.49" rx="56.53" ry="56.49"/><ellipse class="cls-3" cx="337.49" cy="76.49" rx="56.53" ry="56.49"/><ellipse class="cls-3" cx="521.59" cy="76.49" rx="56.53" ry="56.49"/><ellipse class="cls-3" cx="705.7" cy="76.49" rx="56.53" ry="56.49"/><ellipse class="cls-3" cx="889.81" cy="76.49" rx="56.53" ry="56.49"/><ellipse class="cls-3" cx="1073.91" cy="76.49" rx="56.53" ry="56.49"/><ellipse class="cls-3" cx="1258.01" cy="76.49" rx="56.53" ry="56.49"/></g></svg>